<mxfile host="Electron" agent="Mozilla/5.0 (Windows NT 10.0; Win64; x64) AppleWebKit/537.36 (KHTML, like Gecko) draw.io/24.7.8 Chrome/128.0.6613.36 Electron/32.0.1 Safari/537.36" version="24.7.8">
  <diagram name="Page-1" id="929967ad-93f9-6ef4-fab6-5d389245f69c">
    <mxGraphModel dx="1615" dy="955" grid="1" gridSize="10" guides="1" tooltips="1" connect="1" arrows="1" fold="1" page="1" pageScale="1.5" pageWidth="1169" pageHeight="826" background="none" math="0" shadow="0">
      <root>
        <mxCell id="0" style=";html=1;" />
        <mxCell id="1" style=";html=1;" parent="0" />
        <mxCell id="IYuW2PmqL3ZpG1c5O2Uu-1" value="&amp;lt;&amp;lt;executable &amp;gt;&amp;gt;&lt;div&gt;BYTUBE.exe&lt;br&gt;&lt;/div&gt;" style="shape=module;align=left;spacingLeft=20;align=center;verticalAlign=middle;whiteSpace=wrap;html=1;" vertex="1" parent="1">
          <mxGeometry x="770" y="460" width="160" height="50" as="geometry" />
        </mxCell>
        <mxCell id="IYuW2PmqL3ZpG1c5O2Uu-3" value="Back-end dependences" style="shape=folder;fontStyle=1;spacingTop=10;tabWidth=40;tabHeight=14;tabPosition=left;html=1;whiteSpace=wrap;verticalAlign=top;" vertex="1" parent="1">
          <mxGeometry x="390" y="560" width="670" height="270" as="geometry" />
        </mxCell>
        <mxCell id="IYuW2PmqL3ZpG1c5O2Uu-4" value="Front-end dependences" style="shape=folder;fontStyle=1;spacingTop=10;tabWidth=40;tabHeight=14;tabPosition=left;html=1;whiteSpace=wrap;verticalAlign=top;" vertex="1" parent="1">
          <mxGeometry x="390" y="110" width="920" height="280" as="geometry" />
        </mxCell>
        <mxCell id="IYuW2PmqL3ZpG1c5O2Uu-5" style="edgeStyle=orthogonalEdgeStyle;rounded=0;orthogonalLoop=1;jettySize=auto;html=1;entryX=0.5;entryY=1;entryDx=0;entryDy=0;entryPerimeter=0;dashed=1;endArrow=open;endFill=0;" edge="1" parent="1" source="IYuW2PmqL3ZpG1c5O2Uu-1" target="IYuW2PmqL3ZpG1c5O2Uu-4">
          <mxGeometry relative="1" as="geometry" />
        </mxCell>
        <mxCell id="IYuW2PmqL3ZpG1c5O2Uu-6" style="edgeStyle=orthogonalEdgeStyle;shape=connector;rounded=0;orthogonalLoop=1;jettySize=auto;html=1;entryX=0;entryY=0;entryDx=285;entryDy=14;entryPerimeter=0;dashed=1;strokeColor=default;align=center;verticalAlign=middle;fontFamily=Helvetica;fontSize=11;fontColor=default;labelBackgroundColor=default;endArrow=open;endFill=0;" edge="1" parent="1" source="IYuW2PmqL3ZpG1c5O2Uu-1" target="IYuW2PmqL3ZpG1c5O2Uu-3">
          <mxGeometry relative="1" as="geometry" />
        </mxCell>
        <mxCell id="IYuW2PmqL3ZpG1c5O2Uu-7" value="&amp;lt;&amp;lt;libriary&amp;gt;&amp;gt;&lt;div&gt;.NET Core 8&lt;/div&gt;" style="shape=module;align=left;spacingLeft=20;align=center;verticalAlign=middle;whiteSpace=wrap;html=1;" vertex="1" parent="1">
          <mxGeometry x="1240" y="540" width="160" height="50" as="geometry" />
        </mxCell>
        <mxCell id="IYuW2PmqL3ZpG1c5O2Uu-8" style="edgeStyle=orthogonalEdgeStyle;shape=connector;rounded=0;orthogonalLoop=1;jettySize=auto;html=1;entryX=0;entryY=0;entryDx=0;entryDy=15;entryPerimeter=0;dashed=1;strokeColor=default;align=center;verticalAlign=middle;fontFamily=Helvetica;fontSize=11;fontColor=default;labelBackgroundColor=default;endArrow=open;endFill=0;" edge="1" parent="1" source="IYuW2PmqL3ZpG1c5O2Uu-1" target="IYuW2PmqL3ZpG1c5O2Uu-7">
          <mxGeometry relative="1" as="geometry" />
        </mxCell>
        <mxCell id="IYuW2PmqL3ZpG1c5O2Uu-9" value="&amp;lt;&amp;lt;file&amp;gt;&amp;gt;&lt;div&gt;application.json&lt;/div&gt;" style="shape=module;align=left;spacingLeft=20;align=center;verticalAlign=middle;whiteSpace=wrap;html=1;" vertex="1" parent="1">
          <mxGeometry x="1240" y="610" width="160" height="50" as="geometry" />
        </mxCell>
        <mxCell id="IYuW2PmqL3ZpG1c5O2Uu-10" style="edgeStyle=orthogonalEdgeStyle;shape=connector;rounded=0;orthogonalLoop=1;jettySize=auto;html=1;entryX=0;entryY=0;entryDx=0;entryDy=15;entryPerimeter=0;dashed=1;strokeColor=default;align=center;verticalAlign=middle;fontFamily=Helvetica;fontSize=11;fontColor=default;labelBackgroundColor=default;endArrow=open;endFill=0;" edge="1" parent="1" source="IYuW2PmqL3ZpG1c5O2Uu-1" target="IYuW2PmqL3ZpG1c5O2Uu-9">
          <mxGeometry relative="1" as="geometry" />
        </mxCell>
        <mxCell id="IYuW2PmqL3ZpG1c5O2Uu-11" value="&amp;lt;&amp;lt;file&amp;gt;&amp;gt;&lt;div&gt;application.Development.json&lt;/div&gt;" style="shape=module;align=left;spacingLeft=20;align=center;verticalAlign=middle;whiteSpace=wrap;html=1;" vertex="1" parent="1">
          <mxGeometry x="1240" y="680" width="190" height="50" as="geometry" />
        </mxCell>
        <mxCell id="IYuW2PmqL3ZpG1c5O2Uu-12" style="edgeStyle=orthogonalEdgeStyle;shape=connector;rounded=0;orthogonalLoop=1;jettySize=auto;html=1;entryX=0;entryY=0;entryDx=0;entryDy=15;entryPerimeter=0;dashed=1;strokeColor=default;align=center;verticalAlign=middle;fontFamily=Helvetica;fontSize=11;fontColor=default;labelBackgroundColor=default;endArrow=open;endFill=0;" edge="1" parent="1" source="IYuW2PmqL3ZpG1c5O2Uu-1" target="IYuW2PmqL3ZpG1c5O2Uu-11">
          <mxGeometry relative="1" as="geometry" />
        </mxCell>
        <mxCell id="IYuW2PmqL3ZpG1c5O2Uu-13" value="&amp;lt;&amp;lt;file&amp;gt;&amp;gt;&lt;div&gt;launchSettings.json&lt;/div&gt;" style="shape=module;align=left;spacingLeft=20;align=center;verticalAlign=middle;whiteSpace=wrap;html=1;" vertex="1" parent="1">
          <mxGeometry x="1240" y="750" width="160" height="50" as="geometry" />
        </mxCell>
        <mxCell id="IYuW2PmqL3ZpG1c5O2Uu-14" style="edgeStyle=orthogonalEdgeStyle;shape=connector;rounded=0;orthogonalLoop=1;jettySize=auto;html=1;entryX=0;entryY=0;entryDx=0;entryDy=15;entryPerimeter=0;dashed=1;strokeColor=default;align=center;verticalAlign=middle;fontFamily=Helvetica;fontSize=11;fontColor=default;labelBackgroundColor=default;endArrow=open;endFill=0;" edge="1" parent="1" source="IYuW2PmqL3ZpG1c5O2Uu-1" target="IYuW2PmqL3ZpG1c5O2Uu-13">
          <mxGeometry relative="1" as="geometry" />
        </mxCell>
        <mxCell id="IYuW2PmqL3ZpG1c5O2Uu-15" value="&amp;lt;&amp;lt;file&amp;gt;&amp;gt;&lt;div&gt;index.html&lt;/div&gt;" style="shape=module;align=left;spacingLeft=20;align=center;verticalAlign=middle;whiteSpace=wrap;html=1;" vertex="1" parent="1">
          <mxGeometry x="1240" y="470" width="160" height="50" as="geometry" />
        </mxCell>
        <mxCell id="IYuW2PmqL3ZpG1c5O2Uu-16" style="edgeStyle=orthogonalEdgeStyle;shape=connector;rounded=0;orthogonalLoop=1;jettySize=auto;html=1;entryX=0;entryY=0;entryDx=0;entryDy=15;entryPerimeter=0;dashed=1;strokeColor=default;align=center;verticalAlign=middle;fontFamily=Helvetica;fontSize=11;fontColor=default;labelBackgroundColor=default;endArrow=open;endFill=0;" edge="1" parent="1" source="IYuW2PmqL3ZpG1c5O2Uu-1" target="IYuW2PmqL3ZpG1c5O2Uu-15">
          <mxGeometry relative="1" as="geometry" />
        </mxCell>
        <mxCell id="IYuW2PmqL3ZpG1c5O2Uu-17" value="&amp;lt;&amp;lt;libriary&amp;gt;&amp;gt;&lt;div&gt;mobx-react-lite&lt;br&gt;&lt;/div&gt;" style="shape=module;align=left;spacingLeft=20;align=center;verticalAlign=middle;whiteSpace=wrap;html=1;" vertex="1" parent="1">
          <mxGeometry x="770" y="320" width="160" height="50" as="geometry" />
        </mxCell>
        <mxCell id="IYuW2PmqL3ZpG1c5O2Uu-18" value="&amp;lt;&amp;lt;libriary&amp;gt;&amp;gt;&lt;div&gt;mobx&lt;br&gt;&lt;/div&gt;" style="shape=module;align=left;spacingLeft=20;align=center;verticalAlign=middle;whiteSpace=wrap;html=1;" vertex="1" parent="1">
          <mxGeometry x="770" y="240" width="160" height="50" as="geometry" />
        </mxCell>
        <mxCell id="IYuW2PmqL3ZpG1c5O2Uu-19" value="&amp;lt;&amp;lt;libriary&amp;gt;&amp;gt;&lt;div&gt;match-sorter&lt;br&gt;&lt;/div&gt;" style="shape=module;align=left;spacingLeft=20;align=center;verticalAlign=middle;whiteSpace=wrap;html=1;" vertex="1" parent="1">
          <mxGeometry x="770" y="160" width="160" height="50" as="geometry" />
        </mxCell>
        <mxCell id="IYuW2PmqL3ZpG1c5O2Uu-20" value="&amp;lt;&amp;lt;libriary&amp;gt;&amp;gt;&lt;div&gt;localforage&lt;br&gt;&lt;/div&gt;" style="shape=module;align=left;spacingLeft=20;align=center;verticalAlign=middle;whiteSpace=wrap;html=1;" vertex="1" parent="1">
          <mxGeometry x="590" y="320" width="160" height="50" as="geometry" />
        </mxCell>
        <mxCell id="IYuW2PmqL3ZpG1c5O2Uu-21" value="&amp;lt;&amp;lt;libriary&amp;gt;&amp;gt;&lt;div&gt;axios&lt;br&gt;&lt;/div&gt;" style="shape=module;align=left;spacingLeft=20;align=center;verticalAlign=middle;whiteSpace=wrap;html=1;" vertex="1" parent="1">
          <mxGeometry x="590" y="240" width="160" height="50" as="geometry" />
        </mxCell>
        <mxCell id="IYuW2PmqL3ZpG1c5O2Uu-22" value="&amp;lt;&amp;lt;libriary&amp;gt;&amp;gt;&lt;div&gt;@mui/material&lt;br&gt;&lt;/div&gt;" style="shape=module;align=left;spacingLeft=20;align=center;verticalAlign=middle;whiteSpace=wrap;html=1;" vertex="1" parent="1">
          <mxGeometry x="590" y="160" width="160" height="50" as="geometry" />
        </mxCell>
        <mxCell id="IYuW2PmqL3ZpG1c5O2Uu-23" value="&amp;lt;&amp;lt;libriary&amp;gt;&amp;gt;&lt;div&gt;@mui/lab&lt;br&gt;&lt;/div&gt;" style="shape=module;align=left;spacingLeft=20;align=center;verticalAlign=middle;whiteSpace=wrap;html=1;" vertex="1" parent="1">
          <mxGeometry x="410" y="320" width="160" height="50" as="geometry" />
        </mxCell>
        <mxCell id="IYuW2PmqL3ZpG1c5O2Uu-24" value="&amp;lt;&amp;lt;libriary&amp;gt;&amp;gt;&lt;div&gt;@mui/icons-material&lt;br&gt;&lt;/div&gt;" style="shape=module;align=left;spacingLeft=20;align=center;verticalAlign=middle;whiteSpace=wrap;html=1;" vertex="1" parent="1">
          <mxGeometry x="410" y="240" width="160" height="50" as="geometry" />
        </mxCell>
        <mxCell id="IYuW2PmqL3ZpG1c5O2Uu-25" value="&amp;lt;&amp;lt;libriary&amp;gt;&amp;gt;&lt;div&gt;@microsoft/signalr&lt;br&gt;&lt;/div&gt;" style="shape=module;align=left;spacingLeft=20;align=center;verticalAlign=middle;whiteSpace=wrap;html=1;" vertex="1" parent="1">
          <mxGeometry x="410" y="160" width="160" height="50" as="geometry" />
        </mxCell>
        <mxCell id="IYuW2PmqL3ZpG1c5O2Uu-26" value="&amp;lt;&amp;lt;libriary&amp;gt;&amp;gt;&lt;div&gt;react-player&lt;br&gt;&lt;/div&gt;" style="shape=module;align=left;spacingLeft=20;align=center;verticalAlign=middle;whiteSpace=wrap;html=1;" vertex="1" parent="1">
          <mxGeometry x="950" y="320" width="160" height="50" as="geometry" />
        </mxCell>
        <mxCell id="IYuW2PmqL3ZpG1c5O2Uu-27" value="&amp;lt;&amp;lt;libriary&amp;gt;&amp;gt;&lt;div&gt;react-dom&lt;br&gt;&lt;/div&gt;" style="shape=module;align=left;spacingLeft=20;align=center;verticalAlign=middle;whiteSpace=wrap;html=1;" vertex="1" parent="1">
          <mxGeometry x="950" y="240" width="160" height="50" as="geometry" />
        </mxCell>
        <mxCell id="IYuW2PmqL3ZpG1c5O2Uu-28" value="&amp;lt;&amp;lt;libriary&amp;gt;&amp;gt;&lt;div&gt;react&lt;br&gt;&lt;/div&gt;" style="shape=module;align=left;spacingLeft=20;align=center;verticalAlign=middle;whiteSpace=wrap;html=1;" vertex="1" parent="1">
          <mxGeometry x="950" y="160" width="160" height="50" as="geometry" />
        </mxCell>
        <mxCell id="IYuW2PmqL3ZpG1c5O2Uu-30" value="&amp;lt;&amp;lt;libriary&amp;gt;&amp;gt;&lt;div&gt;sort-by&lt;br&gt;&lt;/div&gt;" style="shape=module;align=left;spacingLeft=20;align=center;verticalAlign=middle;whiteSpace=wrap;html=1;" vertex="1" parent="1">
          <mxGeometry x="1130" y="240" width="160" height="50" as="geometry" />
        </mxCell>
        <mxCell id="IYuW2PmqL3ZpG1c5O2Uu-31" value="&amp;lt;&amp;lt;libriary&amp;gt;&amp;gt;&lt;div&gt;react-router-dom&lt;br&gt;&lt;/div&gt;" style="shape=module;align=left;spacingLeft=20;align=center;verticalAlign=middle;whiteSpace=wrap;html=1;" vertex="1" parent="1">
          <mxGeometry x="1130" y="160" width="160" height="50" as="geometry" />
        </mxCell>
        <mxCell id="IYuW2PmqL3ZpG1c5O2Uu-32" value="ASP .NET Core" style="shape=folder;fontStyle=1;spacingTop=10;tabWidth=40;tabHeight=14;tabPosition=left;html=1;whiteSpace=wrap;verticalAlign=top;" vertex="1" parent="1">
          <mxGeometry x="1340" y="110" width="490" height="280" as="geometry" />
        </mxCell>
        <mxCell id="IYuW2PmqL3ZpG1c5O2Uu-33" style="edgeStyle=orthogonalEdgeStyle;shape=connector;rounded=0;orthogonalLoop=1;jettySize=auto;html=1;entryX=0.5;entryY=1;entryDx=0;entryDy=0;entryPerimeter=0;dashed=1;strokeColor=default;align=center;verticalAlign=middle;fontFamily=Helvetica;fontSize=11;fontColor=default;labelBackgroundColor=default;endArrow=open;endFill=0;" edge="1" parent="1" source="IYuW2PmqL3ZpG1c5O2Uu-1" target="IYuW2PmqL3ZpG1c5O2Uu-32">
          <mxGeometry relative="1" as="geometry">
            <Array as="points">
              <mxPoint x="850" y="440" />
              <mxPoint x="1585" y="440" />
            </Array>
          </mxGeometry>
        </mxCell>
        <mxCell id="IYuW2PmqL3ZpG1c5O2Uu-34" value="&amp;lt;&amp;lt;libriary&amp;gt;&amp;gt;&lt;div&gt;Microsoft.AspNetCore&lt;/div&gt;" style="shape=module;align=left;spacingLeft=20;align=center;verticalAlign=middle;whiteSpace=wrap;html=1;" vertex="1" parent="1">
          <mxGeometry x="1360" y="160" width="160" height="50" as="geometry" />
        </mxCell>
        <mxCell id="IYuW2PmqL3ZpG1c5O2Uu-35" value="&amp;lt;&amp;lt;libriary&amp;gt;&amp;gt;&lt;div&gt;Microsoft.AspNetCore.Session&lt;br&gt;&lt;/div&gt;" style="shape=module;align=left;spacingLeft=20;align=center;verticalAlign=middle;whiteSpace=wrap;html=1;" vertex="1" parent="1">
          <mxGeometry x="1360" y="240" width="210" height="50" as="geometry" />
        </mxCell>
        <mxCell id="IYuW2PmqL3ZpG1c5O2Uu-36" value="&amp;lt;&amp;lt;libriary&amp;gt;&amp;gt;&lt;div&gt;Microsoft.AspNetCore.SignalR.Common&lt;br&gt;&lt;/div&gt;" style="shape=module;align=left;spacingLeft=20;align=center;verticalAlign=middle;whiteSpace=wrap;html=1;" vertex="1" parent="1">
          <mxGeometry x="1540" y="160" width="250" height="50" as="geometry" />
        </mxCell>
        <mxCell id="IYuW2PmqL3ZpG1c5O2Uu-37" value="&amp;lt;&amp;lt;libriary&amp;gt;&amp;gt;&lt;div&gt;Microsoft.AspNetCore.StaticFiles&lt;br&gt;&lt;/div&gt;" style="shape=module;align=left;spacingLeft=20;align=center;verticalAlign=middle;whiteSpace=wrap;html=1;" vertex="1" parent="1">
          <mxGeometry x="1590" y="240" width="220" height="50" as="geometry" />
        </mxCell>
        <mxCell id="IYuW2PmqL3ZpG1c5O2Uu-40" value="&amp;lt;&amp;lt;libriary&amp;gt;&amp;gt;&lt;div&gt;Microsoft.AspNetCore.Authentication.JwtBearer&lt;br&gt;&lt;/div&gt;" style="shape=module;align=left;spacingLeft=20;align=center;verticalAlign=middle;whiteSpace=wrap;html=1;" vertex="1" parent="1">
          <mxGeometry x="1360" y="320" width="300" height="50" as="geometry" />
        </mxCell>
        <mxCell id="IYuW2PmqL3ZpG1c5O2Uu-41" value="&amp;lt;&amp;lt;libriary&amp;gt;&amp;gt;&lt;div&gt;NAudio&lt;/div&gt;" style="shape=module;align=left;spacingLeft=20;align=center;verticalAlign=middle;whiteSpace=wrap;html=1;" vertex="1" parent="1">
          <mxGeometry x="410" y="610" width="160" height="50" as="geometry" />
        </mxCell>
        <mxCell id="IYuW2PmqL3ZpG1c5O2Uu-42" value="&amp;lt;&amp;lt;libriary&amp;gt;&amp;gt;&lt;div&gt;Xabe.FFmpeg&lt;/div&gt;" style="shape=module;align=left;spacingLeft=20;align=center;verticalAlign=middle;whiteSpace=wrap;html=1;" vertex="1" parent="1">
          <mxGeometry x="877" y="610" width="160" height="50" as="geometry" />
        </mxCell>
        <mxCell id="IYuW2PmqL3ZpG1c5O2Uu-43" value="&amp;lt;&amp;lt;libriary&amp;gt;&amp;gt;&lt;div&gt;Npgsql.EntityFrameworkCore.PostgreSQL&lt;/div&gt;" style="shape=module;align=left;spacingLeft=20;align=center;verticalAlign=middle;whiteSpace=wrap;html=1;" vertex="1" parent="1">
          <mxGeometry x="590" y="610" width="270" height="50" as="geometry" />
        </mxCell>
        <mxCell id="IYuW2PmqL3ZpG1c5O2Uu-44" value="&amp;lt;&amp;lt;libriary&amp;gt;&amp;gt;&lt;div&gt;Swashbuckle.AspNetCore.Annotations&lt;/div&gt;" style="shape=module;align=left;spacingLeft=20;align=center;verticalAlign=middle;whiteSpace=wrap;html=1;" vertex="1" parent="1">
          <mxGeometry x="410" y="760" width="270" height="50" as="geometry" />
        </mxCell>
        <mxCell id="IYuW2PmqL3ZpG1c5O2Uu-45" value="&amp;lt;&amp;lt;libriary&amp;gt;&amp;gt;&lt;div&gt;Swashbuckle.AspNetCore.SwaggerUI&lt;/div&gt;" style="shape=module;align=left;spacingLeft=20;align=center;verticalAlign=middle;whiteSpace=wrap;html=1;" vertex="1" parent="1">
          <mxGeometry x="700" y="760" width="270" height="50" as="geometry" />
        </mxCell>
        <mxCell id="IYuW2PmqL3ZpG1c5O2Uu-46" value="&amp;lt;&amp;lt;libriary&amp;gt;&amp;gt;&lt;div&gt;Swashbuckle.AspNetCore.SwaggerGen&lt;/div&gt;" style="shape=module;align=left;spacingLeft=20;align=center;verticalAlign=middle;whiteSpace=wrap;html=1;" vertex="1" parent="1">
          <mxGeometry x="410" y="690" width="270" height="50" as="geometry" />
        </mxCell>
        <mxCell id="IYuW2PmqL3ZpG1c5O2Uu-47" value="&amp;lt;&amp;lt;libriary&amp;gt;&amp;gt;&lt;div&gt;System.IndentityModel.Tokens.Jwt&lt;/div&gt;" style="shape=module;align=left;spacingLeft=20;align=center;verticalAlign=middle;whiteSpace=wrap;html=1;" vertex="1" parent="1">
          <mxGeometry x="700" y="690" width="270" height="50" as="geometry" />
        </mxCell>
      </root>
    </mxGraphModel>
  </diagram>
</mxfile>
